<?xml version="1.0" encoding="UTF-8"?>
<svg version="1.1" xmlns="http://www.w3.org/2000/svg" width="1024" height="1024">
<path d="M0 0 C1.07461739 0.00539291 1.07461739 0.00539291 2.17094421 0.01089478 C2.92211517 0.01074875 3.67328613 0.01060272 4.44721985 0.01045227 C6.94166404 0.01115153 9.43603448 0.01894452 11.9304657 0.02676392 C13.65539509 0.02862805 15.38032501 0.03005197 17.10525513 0.03105164 C21.65418448 0.03487719 26.20308211 0.04470779 30.7519989 0.05575562 C35.39025951 0.06596893 40.02852522 0.07054908 44.66679382 0.07559204 C53.77422967 0.08633003 62.88164192 0.1034069 71.98905945 0.12442017 C73.23141112 2.60912352 73.11601283 4.26803052 73.11845398 7.04776001 C73.12309914 8.59514107 73.12309914 8.59514107 73.12783813 10.17378235 C73.12586929 11.2996022 73.12390045 12.42542206 73.12187195 13.58535767 C73.12332718 14.75053421 73.12478241 15.91571075 73.12628174 17.11619568 C73.12853348 20.91063641 73.12224911 24.70498836 73.11405945 28.49942017 C73.11217621 29.78216827 73.11029297 31.06491638 73.10835266 32.38653564 C72.97832136 107.26279266 58.30268609 164.93207779 4.12748718 219.17617798 C-8.96190139 232.12442017 -8.96190139 232.12442017 -12.01094055 232.12442017 C-12.01094055 232.78442017 -12.01094055 233.44442017 -12.01094055 234.12442017 C-13.8195343 235.64785767 -13.8195343 235.64785767 -16.44844055 237.49942017 C-17.4539093 238.21098267 -18.45937805 238.92254517 -19.49531555 239.65567017 C-20.05670227 240.04883423 -20.61808899 240.44199829 -21.19648743 240.84707642 C-23.12885447 242.20742953 -25.0469741 243.58638251 -26.96406555 244.96817017 C-43.91442322 257.1407611 -61.67328931 267.51362348 -79.99092102 277.47744751 C-82.52873239 278.86144715 -85.0542597 280.26467502 -87.5773468 281.67520142 C-88.78323069 282.32706797 -89.99012537 282.97707144 -91.19844055 283.62442017 C-92.16137024 284.15035767 -93.12429993 284.67629517 -94.1164093 285.21817017 C-100.06823009 287.08162823 -105.15090887 285.40513928 -110.53657532 282.65127563 C-111.48294861 282.14298218 -111.48294861 282.14298218 -112.44844055 281.62442017 C-113.13671936 281.26622192 -113.82499817 280.90802368 -114.53413391 280.53897095 C-115.9806757 279.7840114 -117.4244271 279.02368281 -118.86543274 278.25820923 C-120.90654891 277.17958571 -122.95941982 276.12868571 -125.01875305 275.08535767 C-141.3265687 266.7465607 -157.57558405 257.44102681 -172.01094055 246.12442017 C-173.14597828 245.25413406 -174.28142496 244.38438116 -175.41719055 243.51504517 C-181.76340628 238.62475106 -187.89366851 233.58889784 -193.79219055 228.15957642 C-195.78793154 226.32897596 -197.82324667 224.56605534 -199.88594055 222.81192017 C-208.83861232 214.98286307 -216.7500676 206.53022166 -224.01094055 197.12442017 C-225.67162949 195.07788827 -227.33832361 193.03621498 -229.01094055 190.99942017 C-229.77406555 190.06871704 -230.53719055 189.13801392 -231.32344055 188.17910767 C-232.15875305 187.16203735 -232.15875305 187.16203735 -233.01094055 186.12442017 C-229.34940951 181.36863847 -225.49693923 177.98618252 -220.63594055 174.49942017 C-219.2191248 173.45972816 -217.80379962 172.41800236 -216.3898468 171.37442017 C-215.30920959 170.57777954 -215.30920959 170.57777954 -214.20674133 169.76504517 C-210.60885852 167.07683386 -207.0852047 164.2987515 -203.57344055 161.49942017 C-202.60688538 160.73637573 -202.60688538 160.73637573 -201.62080383 159.95791626 C-198.34095969 157.451944 -198.34095969 157.451944 -196.01094055 154.12442017 C-194.39743562 153.23184297 -192.78343386 152.3401542 -191.16719055 151.45254517 C-187.71295466 149.3249361 -184.65885693 146.7281527 -181.5226593 144.16348267 C-178.09450941 141.38044341 -174.56418223 138.74468777 -171.01094055 136.12442017 C-167.75886964 137.54180506 -165.69732988 139.24968428 -163.26094055 141.81192017 C-148.46337197 157.32449732 -129.7661717 170.39327536 -111.01094055 180.68692017 C-110.41200989 181.02183472 -109.81307922 181.35674927 -109.19599915 181.70181274 C-105.12796009 183.85858953 -101.62276694 185.02147761 -97.01094055 185.12442017 C-94.41230991 184.14107471 -92.3688498 183.19620013 -90.01094055 181.81192017 C-89.36721497 181.450177 -88.72348938 181.08843384 -88.06025696 180.71572876 C-78.15521512 175.04986198 -68.77736836 168.58853701 -59.69844055 161.68692017 C-59.15300598 161.27393677 -58.60757141 160.86095337 -58.04560852 160.43545532 C-55.4948215 158.4555081 -53.82430123 156.84446119 -52.01094055 154.12442017 C-51.26844055 153.69129517 -50.52594055 153.25817017 -49.76094055 152.81192017 C-47.31916302 151.31355668 -45.77984026 149.97463723 -43.82344055 147.93692017 C-42.89531555 147.00879517 -41.96719055 146.08067017 -41.01094055 145.12442017 C-40.35094055 145.12442017 -39.69094055 145.12442017 -39.01094055 145.12442017 C-38.75312805 144.54305298 -38.49531555 143.96168579 -38.22969055 143.36270142 C-36.90879564 140.93682711 -35.42432535 139.29980151 -33.51094055 137.31192017 C-24.87301747 127.71771159 -12.01094055 111.64170272 -12.01094055 98.12442017 C-11.35094055 98.12442017 -10.69094055 98.12442017 -10.01094055 98.12442017 C-9.69669269 96.43724478 -9.384639 94.74966067 -9.07344055 93.06192017 C-8.89941711 92.1221936 -8.72539368 91.18246704 -8.5460968 90.21426392 C-7.49466887 84.14361069 -6.85770178 78.25545842 -6.82148743 72.09365845 C-6.81319412 71.32371048 -6.80490082 70.55376251 -6.7963562 69.76048279 C-6.77906143 68.10180755 -6.76386661 66.44310931 -6.75057983 64.78439713 C-6.72942905 62.16231391 -6.70242292 59.54034776 -6.67390442 56.91833496 C-6.60433121 50.41443781 -6.5445021 43.91045838 -6.48487854 37.40646362 C-6.43403107 31.89395739 -6.37927505 26.38151844 -6.31906128 20.86910629 C-6.29242903 18.28041303 -6.27165982 15.69171355 -6.25105286 13.10296631 C-6.23446099 11.52824597 -6.21759014 9.95352855 -6.20039368 8.3788147 C-6.19411705 7.29264107 -6.19411705 7.29264107 -6.18771362 6.18452454 C-6.11334111 0.3373727 -5.85612225 0.01239896 0 0 Z " fill="#FACA17" transform="translate(612.0109405517578,413.8755798339844)"/>
<path d="M0 0 C3.00796998 1.29922788 6.01793039 2.5938259 9.02770996 3.88885498 C13.83209959 5.95659486 18.63564752 8.02627215 23.43859863 10.09735107 C40.48581458 17.44537076 57.54837565 24.75726483 74.64880371 31.98065186 C92.71613656 39.62365374 110.71201218 47.42867758 128.71130371 55.23065186 C128.71130371 73.05065186 128.71130371 90.87065186 128.71130371 109.23065186 C125.52490354 110.0272519 123.3912402 110.35678296 120.20349121 110.36004639 C119.31211456 110.3630928 118.42073792 110.36613922 117.50234985 110.36927795 C116.54005463 110.36735947 115.5777594 110.36544098 114.58630371 110.36346436 C113.58009979 110.36537277 112.57389587 110.36728119 111.53720093 110.36924744 C102.65244361 110.37833397 93.76769915 110.32186313 84.88320923 110.25712585 C79.02353215 110.22069655 73.18503142 110.27227219 67.32849121 110.46112061 C50.92179533 110.80883193 38.01569688 106.17082697 23.40238953 99.31019592 C14.68587426 95.23508816 5.78279366 91.60346566 -3.10507202 87.92178345 C-6.80494625 86.38683175 -10.499826 84.84012665 -14.19377136 83.29096985 C-15.91173441 82.57154913 -17.63071818 81.85456036 -19.3507843 81.1401825 C-22.89251331 79.66790712 -26.41109589 78.17511335 -29.90441895 76.59002686 C-38.50947614 72.71904235 -43.71423343 71.76713756 -52.70291138 75.08297729 C-56.3880434 76.5163803 -60.02409054 78.06113605 -63.66369629 79.60565186 C-65.27365135 80.27545473 -66.88417926 80.94388212 -68.49523926 81.61102295 C-71.9388449 83.04064143 -75.3779894 84.48034784 -78.81408691 85.92791748 C-84.50112323 88.32329615 -90.19929651 90.69149305 -95.89807129 93.05877686 C-103.30556575 96.14073163 -110.71118608 99.22710668 -118.10900879 102.33221436 C-118.87541687 102.65256653 -119.64182495 102.9729187 -120.43145752 103.30297852 C-126.43745726 105.82932339 -132.36759909 108.51185414 -138.28869629 111.23065186 C-138.28647568 111.95505966 -138.28425507 112.67946747 -138.28196716 113.42582703 C-138.26196401 120.23908639 -138.24672203 127.05234139 -138.23688412 133.86562252 C-138.2316564 137.3687407 -138.22456079 140.8718347 -138.21325684 144.37493896 C-138.20035423 148.39846026 -138.19546717 152.421956 -138.19104004 156.44549561 C-138.18587875 157.70901352 -138.18071747 158.97253143 -138.17539978 160.27433777 C-138.17532425 161.43546585 -138.17524872 162.59659393 -138.1751709 163.79290771 C-138.17295029 164.82105087 -138.17072968 165.84919403 -138.16844177 166.90849304 C-138.28869629 169.23065186 -138.28869629 169.23065186 -139.28869629 170.23065186 C-141.69217915 170.32561893 -144.0668061 170.35624047 -146.47058105 170.34417725 C-147.59733749 170.34439629 -147.59733749 170.34439629 -148.74685669 170.34461975 C-151.24130088 170.34392049 -153.73567132 170.3361275 -156.23010254 170.32830811 C-157.95503193 170.32644397 -159.67996186 170.32502005 -161.40489197 170.32402039 C-165.95382132 170.32019483 -170.50271896 170.31036423 -175.05163574 170.29931641 C-179.68989635 170.28910309 -184.32816206 170.28452294 -188.96643066 170.27947998 C-198.07386651 170.26874199 -207.18127877 170.25166512 -216.28869629 170.23065186 C-216.38209175 155.41877495 -216.45265187 140.60693696 -216.49594498 125.79482555 C-216.51658007 118.91745861 -216.54471837 112.0402745 -216.5904541 105.1630249 C-216.63454448 98.53003147 -216.65781311 91.89717849 -216.66820526 85.26403236 C-216.67561412 82.72938351 -216.69008122 80.19474543 -216.71161652 77.66017723 C-216.74051997 74.11857725 -216.74465764 70.57777011 -216.74279785 67.03607178 C-216.75717896 65.98087341 -216.77156006 64.92567505 -216.78637695 63.83850098 C-216.7808783 62.87516342 -216.77537964 61.91182587 -216.76971436 60.91929626 C-216.77340153 60.08138644 -216.7770887 59.24347662 -216.7808876 58.38017559 C-216.28869629 56.23065186 -216.28869629 56.23065186 -214.40465927 54.51109791 C-212.10378272 53.11875394 -209.80949682 51.99266264 -207.34338379 50.91815186 C-206.36208496 50.48808838 -205.38078613 50.0580249 -204.36975098 49.6149292 C-203.31175293 49.15811768 -202.25375488 48.70130615 -201.16369629 48.23065186 C-200.05929199 47.74934814 -198.9548877 47.26804443 -197.8170166 46.77215576 C-187.73602426 42.39214822 -177.6135557 38.11016517 -167.48400879 33.84393311 C-161.95196692 31.51353282 -156.42981877 29.16095937 -150.91369629 26.79315186 C-149.67970093 26.26358887 -149.67970093 26.26358887 -148.42077637 25.72332764 C-145.70991366 24.55949635 -142.99930845 23.39506656 -140.28869629 22.23065186 C-136.0487864 20.40993149 -131.80857661 18.5899131 -127.56793213 16.77090454 C-125.78859926 16.00742774 -124.00958911 15.24319895 -122.23059082 14.47894287 C-120.55585693 13.76049194 -120.55585693 13.76049194 -118.84729004 13.02752686 C-117.220896 12.32853271 -117.220896 12.32853271 -115.56164551 11.61541748 C-113.32140241 10.66758376 -111.07246106 9.74012132 -108.81652832 8.83026123 C-107.72582031 8.39004639 -106.6351123 7.94983154 -105.51135254 7.49627686 C-104.53045654 7.10730225 -103.54956055 6.71832764 -102.53894043 6.31756592 C-100.13937909 5.4410875 -100.13937909 5.4410875 -99.28869629 3.23065186 C-98.03935303 3.03040405 -98.03935303 3.03040405 -96.76477051 2.82611084 C-92.39240462 2.07711517 -88.71947925 0.47127442 -84.67150879 -1.29669189 C-83.44752884 -1.82015953 -83.44752884 -1.82015953 -82.19882202 -2.35420227 C-79.60105393 -3.46552542 -77.00701973 -4.58519598 -74.41369629 -5.70684814 C-71.00257589 -7.18126466 -67.58806832 -8.64743111 -64.17150879 -10.10919189 C-63.40041779 -10.44571274 -62.62932678 -10.78223358 -61.83486938 -11.12895203 C-39.15259537 -20.83338602 -21.11566692 -9.12711534 0 0 Z " fill="#FDD21F" transform="translate(555.2886962890625,292.76934814453125)"/>
<path d="M0 0 C3.25207092 1.41738489 5.31361067 3.12526412 7.75 5.6875 C14.05714451 12.29940149 21.10488758 17.99022147 28.375 23.5 C29.11451904 24.06388428 29.85403809 24.62776855 30.6159668 25.20874023 C35.32864776 28.78513974 40.0971105 32.25063834 45.01953125 35.53515625 C47 37 47 37 48.81225586 38.91674805 C51.09544901 41.09089013 53.1860263 42.36357444 55.984375 43.796875 C56.91894531 44.28027344 57.85351562 44.76367188 58.81640625 45.26171875 C59.78449219 45.75285156 60.75257813 46.24398437 61.75 46.75 C62.73355469 47.25660156 63.71710938 47.76320313 64.73046875 48.28515625 C67.15024015 49.53028134 69.57339298 50.76826496 72 52 C72.04626542 64.22152033 72.08183965 76.44301996 72.10362434 88.66460991 C72.11407795 94.33910075 72.12826583 100.01353184 72.15087891 105.68798828 C72.17255116 111.16037715 72.18455674 116.63270841 72.18975449 122.10513687 C72.19346037 124.19680819 72.20069663 126.28847623 72.21146011 128.38012314 C72.22590041 131.30149999 72.22798108 134.22263639 72.22705078 137.14404297 C72.23424133 138.01582184 72.24143188 138.88760071 72.24884033 139.78579712 C72.22810432 145.77189568 72.22810432 145.77189568 70 148 C65.44444444 147.44444444 65.44444444 147.44444444 64 146 C62.05480469 145.63648438 62.05480469 145.63648438 60.0703125 145.265625 C54.43900321 144.05272762 49.8561001 141.57351614 44.875 138.75 C43.46287231 137.96351074 43.46287231 137.96351074 42.0222168 137.16113281 C27.27527207 128.87351309 12.33810973 120.45641935 -1 110 C-2.13503773 109.12971389 -3.27048441 108.259961 -4.40625 107.390625 C-10.75246573 102.50033089 -16.88272796 97.46447768 -22.78125 92.03515625 C-24.77699099 90.2045558 -26.81230611 88.44163517 -28.875 86.6875 C-37.82767177 78.85844291 -45.73912704 70.40580149 -53 61 C-54.66068894 58.9534681 -56.32738306 56.91179482 -58 54.875 C-59.1446875 53.47894531 -59.1446875 53.47894531 -60.3125 52.0546875 C-60.869375 51.37664063 -61.42625 50.69859375 -62 50 C-58.33846896 45.2442183 -54.48599868 41.86176235 -49.625 38.375 C-48.20818425 37.33530799 -46.79285906 36.29358219 -45.37890625 35.25 C-44.65848145 34.71890625 -43.93805664 34.1878125 -43.19580078 33.640625 C-39.59791797 30.95241369 -36.07426414 28.17433133 -32.5625 25.375 C-31.91812988 24.86630371 -31.27375977 24.35760742 -30.60986328 23.83349609 C-27.33001914 21.32752383 -27.33001914 21.32752383 -25 18 C-23.38649506 17.1074228 -21.77249331 16.21573403 -20.15625 15.328125 C-16.70201411 13.20051594 -13.64791638 10.60373254 -10.51171875 8.0390625 C-7.08356886 5.25602324 -3.55324168 2.62026761 0 0 Z " fill="#FED421" transform="translate(441,550)"/>
<path d="M0 0 C25.41 0 50.82 0 77 0 C78.32 6.6 79.64 13.2 81 20 C82.02253777 23.47043122 82.99934112 26.67268429 84.3125 30 C84.60519775 30.7741626 84.89789551 31.5483252 85.19946289 32.34594727 C87.47975776 38.17377191 90.28274371 43.40990522 93.71484375 48.65234375 C95 51 95 51 95 55 C93.0691806 56.68558671 91.25194874 58.03942203 89.125 59.4375 C87.84694333 60.31276198 86.56963789 61.18912164 85.29296875 62.06640625 C84.60380371 62.53449707 83.91463867 63.00258789 83.20458984 63.48486328 C79.23378202 66.21385922 75.33990499 69.04949256 71.4375 71.875 C70.67646973 72.42212646 69.91543945 72.96925293 69.13134766 73.53295898 C66.12746372 75.69827812 63.16269098 77.8690536 60.27734375 80.19140625 C57.97796958 82.01749586 55.6315787 83.53590768 53.125 85.0625 C47.52701934 88.55551791 42.26834125 92.42661617 37.03955078 96.44360352 C32.32214849 100 32.32214849 100 29 100 C10.8211227 69.61591903 0 35.57664294 0 0 Z " fill="#FED524" transform="translate(339,485)"/>
<path d="M0 0 C-11.21361397 5.30514205 -22.58510206 10.10790088 -34 15 C-34.33 51.96 -34.66 88.92 -35 127 C-10.58 127 13.84 127 39 127 C38.8020914 108.04688595 38.8020914 108.04688595 38.54956055 89.09448242 C38.53496121 86.72315592 38.52221925 84.35181694 38.51171875 81.98046875 C38.48613892 80.74349243 38.46055908 79.50651611 38.4342041 78.23205566 C38.43359985 77.05485962 38.43299561 75.87766357 38.43237305 74.66479492 C38.42126999 73.64109299 38.41016693 72.61739105 38.39872742 71.56266785 C39 69 39 69 41.31794739 67.24848938 C42.20302475 66.83648788 43.08810211 66.42448639 44 66 C45.14855469 65.45859375 46.29710937 64.9171875 47.48046875 64.359375 C48.71447614 63.81908696 49.95018838 63.28267752 51.1875 62.75 C51.81591797 62.46898437 52.44433594 62.18796875 53.09179688 61.8984375 C54.70209244 61.20265204 56.34948163 60.59410294 58 60 C58.66 60.33 59.32 60.66 60 61 C58.52223801 61.75276393 57.0426892 62.50202007 55.5625 63.25 C54.73878906 63.66765625 53.91507812 64.0853125 53.06640625 64.515625 C50.49755239 65.75914661 47.91749271 66.93775412 45.30834961 68.09277344 C44.50070663 68.45062927 43.69306366 68.80848511 42.86094666 69.17718506 C42.24683426 69.44871399 41.63272186 69.72024292 41 70 C41.00222061 70.72440781 41.00444122 71.44881561 41.00672913 72.19517517 C41.02673227 79.00843453 41.04197425 85.82168953 41.05181217 92.63497066 C41.05703989 96.13808885 41.0641355 99.64118285 41.07543945 103.14428711 C41.08834206 107.16780841 41.09322912 111.19130414 41.09765625 115.21484375 C41.10281754 116.47836166 41.10797882 117.74187958 41.11329651 119.04368591 C41.11337204 120.204814 41.11344757 121.36594208 41.11352539 122.56225586 C41.115746 123.59039902 41.11796661 124.61854218 41.12025452 125.67784119 C41 128 41 128 40 129 C37.59651714 129.09496708 35.22189018 129.12558862 32.81811523 129.11352539 C31.6913588 129.11374443 31.6913588 129.11374443 30.5418396 129.1139679 C28.04739541 129.11326863 25.55302497 129.10547564 23.05859375 129.09765625 C21.33366436 129.09579212 19.60873443 129.09436819 17.88380432 129.09336853 C13.33487497 129.08954297 8.78597733 129.07971238 4.23706055 129.06866455 C-0.40120006 129.05845124 -5.03946577 129.05387108 -9.67773438 129.04882812 C-18.78517022 129.03809014 -27.89258248 129.02101327 -37 129 C-37.09339546 114.1881231 -37.16395558 99.37628511 -37.20724869 84.5641737 C-37.22788378 77.68680676 -37.25602208 70.80962265 -37.30175781 63.93237305 C-37.34584819 57.29937961 -37.36911682 50.66652664 -37.37950897 44.03338051 C-37.38691783 41.49873165 -37.40138493 38.96409357 -37.42292023 36.42952538 C-37.45182368 32.8879254 -37.45596135 29.34711825 -37.45410156 25.80541992 C-37.46848267 24.75022156 -37.48286377 23.69502319 -37.49768066 22.60784912 C-37.49218201 21.64451157 -37.48668335 20.68117401 -37.48101807 19.68864441 C-37.48470524 18.85073459 -37.48839241 18.01282476 -37.49219131 17.14952374 C-37 15 -37 15 -35.13679123 13.28937244 C-32.60082698 11.75913291 -30.03340459 10.55231125 -27.31640625 9.37109375 C-26.22392578 8.89349609 -25.13144531 8.41589844 -24.00585938 7.92382812 C-22.86955078 7.43333984 -21.73324219 6.94285156 -20.5625 6.4375 C-19.43005859 5.94314453 -18.29761719 5.44878906 -17.13085938 4.93945312 C-14.0914601 3.61587265 -11.0511343 2.29629962 -8 1 C-7.11691162 0.59789307 -6.23382324 0.19578613 -5.32397461 -0.21850586 C-3 -1 -3 -1 0 0 Z " fill="#FCB812" transform="translate(376,334)"/>
<path d="M0 0 C25.41 0 50.82 0 77 0 C78.24990043 2.49980085 78.12697031 4.1896058 78.12939453 6.98681641 C78.13254669 8.03036285 78.13569885 9.0739093 78.13894653 10.14907837 C78.13591019 11.85805801 78.13591019 11.85805801 78.1328125 13.6015625 C78.13376923 14.78479095 78.13472595 15.96801941 78.13571167 17.18710327 C78.13639434 19.71083631 78.13453408 22.23457108 78.13037109 24.75830078 C78.1251279 28.53292063 78.13025792 32.30741566 78.13671875 36.08203125 C78.14050639 51.41210988 77.7916262 66.69011612 77 82 C76.67 82 76.34 82 76 82 C76 55.6 76 29.2 76 2 C51.25 2 26.5 2 1 2 C1 25.76 1 49.52 1 74 C0.67 74 0.34 74 0 74 C0 49.58 0 25.16 0 0 Z " fill="#F9AD08" transform="translate(607,414)"/>
<path d="M0 0 C0.99 0.33 1.98 0.66 3 1 C-3.625 5 -3.625 5 -7 5 C-7 41.3 -7 77.6 -7 115 C14.78 115 36.56 115 59 115 C59 115.33 59 115.66 59 116 C36.89 116 14.78 116 -8 116 C-8 79.04 -8 42.08 -8 4 C-5.36 2.68 -2.72 1.36 0 0 Z " fill="#FCE92C" transform="translate(349,345)"/>
<path d="M0 0 C4.24956686 1.43712625 7.16055297 3.55042446 10.625 6.375 C29.01619537 20.92222168 50.30914432 32.09795359 71 43 C68 44 68 44 65.82128906 43.14233398 C64.97791992 42.68157471 64.13455078 42.22081543 63.265625 41.74609375 C61.83222778 40.96915161 61.83222778 40.96915161 60.36987305 40.17651367 C59.34031494 39.60263916 58.31075684 39.02876465 57.25 38.4375 C56.1875708 37.85266846 55.1251416 37.26783691 54.03051758 36.6652832 C38.92827506 28.27762544 23.59870927 19.7176268 10 9 C8.58074219 7.89978516 8.58074219 7.89978516 7.1328125 6.77734375 C2.07990714 2.80920339 2.07990714 2.80920339 0 1 C0 0.67 0 0.34 0 0 Z " fill="#FBB60C" transform="translate(430,651)"/>
<path d="M0 0 C0.66 0.33 1.32 0.66 2 1 C-19.96875 20 -19.96875 20 -25 20 C-24.50628906 19.59007812 -24.01257813 19.18015625 -23.50390625 18.7578125 C-22.86324219 18.21898437 -22.22257812 17.68015625 -21.5625 17.125 C-20.92441406 16.59132813 -20.28632813 16.05765625 -19.62890625 15.5078125 C-17.89194996 14.0777243 -17.89194996 14.0777243 -17 12 C-15.3977774 11.11366409 -13.79470619 10.22882921 -12.1875 9.3515625 C-7.8231734 6.65503214 -3.94336695 3.26894806 0 0 Z " fill="#FCB90F" transform="translate(433,556)"/>
<path d="M0 0 C4.22251501 3.29562147 7.65844399 6.80222218 11.1328125 10.87109375 C15.04117001 15.32727542 19.05747489 19.70498326 24 23 C24 23.66 24 24.32 24 25 C20.82521756 23.59742396 18.69026728 21.93680701 16.25 19.48046875 C15.5590625 18.78759766 14.868125 18.09472656 14.15625 17.38085938 C13.4446875 16.65705078 12.733125 15.93324219 12 15.1875 C11.2884375 14.47529297 10.576875 13.76308594 9.84375 13.02929688 C0 3.10290345 0 3.10290345 0 0 Z " fill="#FCB40E" transform="translate(392,614)"/>
<path d="M0 0 C0.66 0.33 1.32 0.66 2 1 C-0.4312688 2.84214217 -2.86931698 4.67378239 -5.3125 6.5 C-6.00279297 7.02464844 -6.69308594 7.54929687 -7.40429688 8.08984375 C-8.07138672 8.58613281 -8.73847656 9.08242188 -9.42578125 9.59375 C-10.34484253 10.28500977 -10.34484253 10.28500977 -11.2824707 10.99023438 C-13 12 -13 12 -16 12 C-16.33 10.68 -16.66 9.36 -17 8 C-16.13117188 8.0825 -15.26234375 8.165 -14.3671875 8.25 C-10.15748541 7.93744671 -8.42429231 6.57505741 -5.125 4 C-4.15820312 3.2575 -3.19140625 2.515 -2.1953125 1.75 C-1.47085937 1.1725 -0.74640625 0.595 0 0 Z " fill="#FBBB12" transform="translate(384,573)"/>
<path d="M0 0 C2.91632441 2.5932854 4.71395215 5.59032974 6.6875 8.9375 C7.31011719 9.97777344 7.93273437 11.01804687 8.57421875 12.08984375 C10 15 10 15 10 19 C9.34 19 8.68 19 8 19 C7.79375 18.236875 7.5875 17.47375 7.375 16.6875 C5.74406919 12.3136401 3.55328752 8.43781451 1.2421875 4.390625 C0 2 0 2 0 0 Z " fill="#FDB810" transform="translate(424,521)"/>
<path d="M0 0 C0.66 0.66 1.32 1.32 2 2 C-0.31 5.3 -2.62 8.6 -5 12 C-5 8.55639368 -4.20408468 7.25204608 -2.5 4.3125 C-2.0359375 3.50425781 -1.571875 2.69601562 -1.09375 1.86328125 C-0.7328125 1.24839844 -0.371875 0.63351562 0 0 Z " fill="#FCD71E" transform="translate(598,525)"/>
<path d="" fill="#6D6D6B" transform="translate(0,0)"/>
<path d="" fill="#F8CC2A" transform="translate(0,0)"/>
<path d="" fill="#EFC221" transform="translate(0,0)"/>
<path d="" fill="#F0C423" transform="translate(0,0)"/>
<path d="" fill="#F0C522" transform="translate(0,0)"/>
<path d="" fill="#F0C920" transform="translate(0,0)"/>
<path d="" fill="#FAC420" transform="translate(0,0)"/>
<path d="" fill="#F9D02A" transform="translate(0,0)"/>
<path d="" fill="#FCCC26" transform="translate(0,0)"/>
<path d="" fill="#F7D02C" transform="translate(0,0)"/>
<path d="" fill="#F6CD2D" transform="translate(0,0)"/>
<path d="" fill="#F2CA26" transform="translate(0,0)"/>
<path d="" fill="#FCD423" transform="translate(0,0)"/>
<path d="" fill="#FCD529" transform="translate(0,0)"/>
<path d="" fill="#FBCC1E" transform="translate(0,0)"/>
<path d="" fill="#FCD42A" transform="translate(0,0)"/>
<path d="" fill="#FFD62B" transform="translate(0,0)"/>
<path d="" fill="#F5CF2C" transform="translate(0,0)"/>
<path d="" fill="#FBCC1F" transform="translate(0,0)"/>
<path d="" fill="#F6D22C" transform="translate(0,0)"/>
<path d="" fill="#F3C620" transform="translate(0,0)"/>
<path d="" fill="#F9CA21" transform="translate(0,0)"/>
<path d="" fill="#F8D02D" transform="translate(0,0)"/>
<path d="" fill="#FBDB2A" transform="translate(0,0)"/>
<path d="" fill="#F9CB22" transform="translate(0,0)"/>
<path d="" fill="#F9D22C" transform="translate(0,0)"/>
<path d="" fill="#F2C723" transform="translate(0,0)"/>
<path d="" fill="#FCD631" transform="translate(0,0)"/>
<path d="" fill="#F9D32E" transform="translate(0,0)"/>
<path d="" fill="#F8D62B" transform="translate(0,0)"/>
<path d="" fill="#FCCC1D" transform="translate(0,0)"/>
<path d="" fill="#FDCE20" transform="translate(0,0)"/>
<path d="" fill="#FED023" transform="translate(0,0)"/>
<path d="" fill="#FDD226" transform="translate(0,0)"/>
<path d="" fill="#FBD528" transform="translate(0,0)"/>
<path d="" fill="#FCD327" transform="translate(0,0)"/>
<path d="" fill="#FED025" transform="translate(0,0)"/>
<path d="" fill="#FBD625" transform="translate(0,0)"/>
<path d="" fill="#FAD22B" transform="translate(0,0)"/>
<path d="" fill="#F2C727" transform="translate(0,0)"/>
<path d="" fill="#FCD22B" transform="translate(0,0)"/>
<path d="" fill="#F8D12A" transform="translate(0,0)"/>
<path d="" fill="#726F6B" transform="translate(0,0)"/>
</svg>
